<?xml version="1.0" standalone="no"?><!DOCTYPE svg PUBLIC "-//W3C//DTD SVG 1.1//EN" "http://www.w3.org/Graphics/SVG/1.1/DTD/svg11.dtd"><svg t="1732519812224" class="icon" viewBox="0 0 1024 1024" version="1.1" xmlns="http://www.w3.org/2000/svg" p-id="7526" xmlns:xlink="http://www.w3.org/1999/xlink" width="200" height="200"><path d="M520 943.712a8 8 0 0 1-8-8v-416a8 8 0 0 1 8-8h416a8 8 0 0 1 8 8v416a8 8 0 0 1-8 8h-416z" fill="#80C33C" p-id="7527"></path><path d="M920 535.712v384h-384v-384h384m16-48h-416a32 32 0 0 0-32 32v416a32 32 0 0 0 32 32h416a32 32 0 0 0 32-32v-416a32 32 0 0 0-32-32z" fill="#3A7033" p-id="7528"></path><path d="M88 894.688a8 8 0 0 1-8-8v-416a8 8 0 0 1 8-8h416a8 8 0 0 1 8 8v416a8 8 0 0 1-8 8h-416z" fill="#E4001D" p-id="7529"></path><path d="M488 486.688v384h-384v-384h384m16-48h-416a32 32 0 0 0-32 32v416a32 32 0 0 0 32 32h416a32 32 0 0 0 32-32v-416a32 32 0 0 0-32-32z" fill="#8C031A" p-id="7530"></path><path d="M264.864 512.288a8 8 0 0 1-8-8v-416a8 8 0 0 1 8-8h416a8 8 0 0 1 8 8v68.544h-110.336v296.736h110.336v50.688a8 8 0 0 1-8 8h-416z" fill="#2AB2EC" p-id="7531"></path><path d="M664.864 104.288v28.544h-110.336v344.736h110.336v10.688h-384v-384h384m16-47.968h-416a32 32 0 0 0-32 32v416a32 32 0 0 0 32 32h416a32 32 0 0 0 32-32v-74.688h-110.336V180.832h110.336V88.288a32 32 0 0 0-32-32z" fill="#0181B8" p-id="7532"></path><path d="M824.128 230.08l-38.24-28.896-5.76-4.384-4.512 5.76-117.952 151.456-1.504 1.984-0.064 2.496-1.056 44.192-0.32 10.912 10.112-3.648 42.624-15.296 2.048-0.736 1.312-1.792 114.624-151.488 4.576-6.016-5.888-4.544z m-27.744 24.48l-9.056 11.936-86.816 114.752-30.432 10.944 0.8-30.848 89.312-114.72 9.184-11.744 13.44-17.312 26.432 19.968-12.864 17.024z m-27.008-19.68l27.008 19.68-9.056 11.936-27.136-19.872 9.184-11.744z" fill="#00A0E8" p-id="7533"></path></svg>